<?xml version="1.0" encoding="UTF-8" standalone="no"?>
<!DOCTYPE svg PUBLIC "-//W3C//DTD SVG 1.1//EN" "http://www.w3.org/Graphics/SVG/1.1/DTD/svg11.dtd">
<svg width="100%" height="100%" viewBox="0 0 451 419" version="1.1" xmlns="http://www.w3.org/2000/svg" xmlns:xlink="http://www.w3.org/1999/xlink" xml:space="preserve" xmlns:serif="http://www.serif.com/" style="fill-rule:evenodd;clip-rule:evenodd;stroke-linejoin:round;stroke-miterlimit:2;">
    <g transform="matrix(1,0,0,1,-568.614144,-1003.130803)">
        <g id="Screenshot-2026-05-09-at-11.53.46-AM.png" serif:id="Screenshot 2026-05-09 at 11.53.46 AM.png" transform="matrix(1.610656,0,0,1.610656,429.778689,862.778689)">
            <path d="M365.948,102.515C365.382,110.137 363.612,109.974 351.04,128.169C350.112,129.512 348.01,132.316 347.742,132.674C347.715,132.71 286.478,218.153 283.836,221.74C277.652,230.136 277.959,230.33 271.72,238.658C267.816,243.869 268.033,244.003 264.161,249.257C260.131,254.726 222.377,307.571 217.84,313.743C211.669,322.137 211.963,322.329 205.727,330.662C200.323,337.884 197.27,344.9 188.546,346.71C185.17,347.411 180.256,346.11 177.623,344.314C174.869,342.436 174.983,342.284 147.85,315.15C143.29,310.591 91.19,258.49 90.867,258.15C83.687,250.567 85.194,239.736 92.615,234.675C96.46,232.052 104.931,230.035 112.15,236.867C112.492,237.19 165.512,290.21 170.151,294.849C171.071,295.769 171.048,295.789 181.623,306.377C183.405,308.161 184.248,308.904 186.104,306.213C190.126,300.38 204.013,281.399 207.888,275.778C208.408,275.024 247.377,221.094 284,169.859C284.298,169.443 286.255,166.705 287.763,164.688C289.767,162.007 305.609,139.768 311.138,132.24C316.233,125.305 316.042,125.188 321.173,118.265C325.022,113.071 338.864,92.984 341.551,90.557C344.645,87.762 351.091,85.308 357.749,89.034C364.603,92.869 365.811,97.143 365.948,102.515Z" style="fill:rgb(46,64,95);"/>
        </g>
    </g>
</svg>
